<svg xmlns="http://www.w3.org/2000/svg" width="42" height="15" viewBox="0 0 42 15" fill="none">
<path fill-rule="evenodd" clip-rule="evenodd" d="M9.16897 -0.00012207L2.23283 5.63109L2.41314 5.8518L9.34929 0.220582L9.16897 -0.00012207ZM7.22425 12.1847C6.81747 13.1673 5.96871 13.6664 4.70144 13.6664C2.95307 13.6664 1.76793 12.6916 1.60365 11.1281L1.60106 11.095L1.60106 11.0949C1.59548 11.0255 1.58234 10.8618 1.57627 10.7499H9.15254V10.7226C9.12517 9.95837 9.01174 9.393 8.76141 8.77305C8.12777 7.22901 6.56715 6.30883 4.58801 6.30883C1.88527 6.30883 0 8.1141 0 10.6953C0 13.2687 1.83051 14.9999 4.55672 14.9999C6.73533 14.9999 8.19427 14.0875 9.01174 12.2042L9.02738 12.1692H7.23599L7.22425 12.1847ZM1.65841 9.86869L1.66623 9.8375C1.66623 9.8336 1.66721 9.83068 1.66819 9.82775C1.66917 9.82483 1.67014 9.8219 1.67014 9.818C1.84615 9.09667 2.2412 8.51181 2.80835 8.1297C2.84746 8.10241 2.88657 8.07511 2.92569 8.05172C2.9296 8.04977 2.93449 8.04684 2.93938 8.04392C2.94426 8.04099 2.94915 8.03807 2.95306 8.03612L2.97653 8.02442C3.04303 7.98543 3.10952 7.95034 3.17601 7.91915L3.18775 7.91525C3.26597 7.88016 3.34811 7.84507 3.43025 7.81777H3.43416C3.5163 7.78658 3.60235 7.76319 3.69231 7.73979L3.70795 7.73589C3.78227 7.7164 3.85659 7.7008 3.93872 7.6891L3.96219 7.6852C3.96806 7.68325 3.97393 7.68228 3.97979 7.6813C3.98566 7.68033 3.99153 7.67936 3.99739 7.67741L4.01564 7.67479L4.01566 7.67479C4.06359 7.66791 4.10913 7.66137 4.15776 7.65791C4.31421 7.63841 4.4472 7.63062 4.57236 7.63062C6.1017 7.63062 7.17732 8.44942 7.4472 9.818L7.45502 9.8414H7.45111L7.45502 9.87259C7.48631 10.0441 7.50196 10.2001 7.50978 10.3522H1.58018C1.59583 10.1962 1.6193 10.0402 1.65841 9.86869ZM32.7653 14.7698L28.8031 9.91544L32.5306 6.60901L32.6206 6.52713H30.5359L26.4837 10.1611V3.09594H24.837V14.7698H26.4837V11.7987L27.5711 10.8356L30.7979 14.7542L30.8097 14.7698H32.7653ZM18.6141 9.20584C18.4302 7.33428 16.983 6.30492 14.5306 6.30492C12.3872 6.30492 10.9478 7.32648 10.9478 8.85102C10.9478 10.1806 11.8357 10.9214 13.7445 11.1905L15.3012 11.4322C16.4042 11.6155 17.0026 11.8533 17.0026 12.598C17.0026 13.3272 16.2282 13.7639 14.9335 13.7639C13.498 13.7639 12.5789 13.1985 12.309 12.1691H10.7014C10.9439 13.9393 12.5085 14.9921 14.9335 14.9921C17.249 14.9921 18.7471 13.9939 18.7471 12.446C18.7471 11.0696 17.8553 10.3483 15.7588 10.0324L14.0378 9.7907C13.0952 9.64254 12.6727 9.30722 12.6727 8.69896C12.6727 7.98933 13.4042 7.53313 14.5345 7.53313C16.0365 7.53313 16.8501 8.06731 17.0847 9.20584H18.6141ZM20.7888 6.52733H22.4355V14.77H20.7888V6.52733ZM20.5659 4.12141C20.5659 5.51338 22.6584 5.51338 22.6584 4.14091C22.6584 2.75283 20.5659 2.75283 20.5659 4.12141ZM40.4981 7.81387L40.5098 6.52327H42V14.7776H40.545V14.7737L40.4785 13.5299C39.8722 14.3409 38.8044 14.996 37.5333 14.996C34.9596 14.996 33.2308 13.2375 33.2308 10.6251C33.2308 8.0829 35.0065 6.30492 37.5489 6.30492C38.781 6.30492 39.8801 6.98726 40.4981 7.81387ZM37.5997 13.5767C39.5593 13.5767 40.502 12.1146 40.545 10.7538C40.5685 9.91547 40.2947 9.15515 39.7705 8.61708C39.2425 8.07511 38.4837 7.78657 37.5802 7.78657C35.9413 7.78657 34.7523 8.99919 34.7523 10.6719C34.7523 12.3836 35.9257 13.5767 37.5997 13.5767Z" fill="black"/>
</svg>
